<svg version="1.0" xmlns="http://www.w3.org/2000/svg"
 width="346.000000pt" height="260.000000pt" viewBox="0 0 346.000000 260.000000"
 preserveAspectRatio="xMidYMid meet">

<g transform="translate(0.000000,260.000000) scale(0.100000,-0.100000)"
fill="#ffffff" stroke="none">
<path d="M1625 2529 c-287 -27 -555 -212 -689 -476 -67 -134 -96 -260 -96
-421 0 -277 127 -526 360 -706 126 -97 363 -176 530 -176 245 0 510 122 679
311 62 70 143 217 177 323 33 100 44 297 24 410 -40 227 -161 430 -335 559
-188 140 -402 198 -650 176z m305 -80 c50 -12 128 -41 190 -72 89 -44 118 -64
190 -137 100 -99 145 -165 188 -275 48 -119 65 -228 59 -365 -10 -226 -90
-405 -251 -558 -256 -242 -629 -297 -953 -140 -92 44 -224 153 -290 240 -50
64 -105 178 -134 273 -26 89 -37 279 -20 367 50 265 205 480 428 594 200 102
375 123 593 73z"/>
<path d="M1575 2394 c-97 -19 -249 -85 -317 -138 -75 -60 -171 -173 -208 -246
-71 -140 -103 -329 -81 -478 25 -170 80 -287 189 -404 138 -146 304 -232 490
-251 l52 -6 0 77 c0 57 -5 85 -19 107 -29 49 -110 133 -157 166 -37 25 -44 35
-44 64 0 19 -4 37 -10 40 -6 3 -10 -5 -10 -19 0 -14 -4 -27 -10 -31 -13 -8
-90 64 -90 85 0 26 -10 50 -21 50 -5 0 -7 -11 -3 -25 4 -18 2 -25 -8 -25 -18
0 -104 66 -112 86 -3 8 -13 14 -22 14 -12 0 -7 -11 21 -45 31 -38 34 -46 20
-51 -24 -9 1 -24 41 -24 32 0 99 -43 99 -63 0 -7 -15 -12 -37 -13 -70 -1 -34
-19 38 -19 67 0 73 -2 117 -38 26 -21 47 -42 47 -47 0 -13 -101 -60 -129 -60
-36 0 -99 19 -107 31 -3 6 -1 16 5 22 17 17 13 27 -9 27 -31 0 -74 25 -104 60
-32 39 -33 50 -3 50 20 0 19 2 -9 19 -42 25 -74 109 -74 191 0 61 8 72 30 46
15 -19 77 -41 159 -57 38 -7 75 -22 92 -36 l28 -24 7 25 c3 14 9 26 13 26 4 0
23 -17 43 -37 43 -44 68 -98 68 -147 0 -29 6 -38 35 -56 19 -12 52 -42 72 -67
l38 -46 5 104 c5 103 5 104 30 104 25 0 25 -1 30 -102 l5 -101 73 69 c47 46
72 77 72 92 0 48 23 101 62 143 22 24 44 44 48 44 4 0 11 -12 14 -26 l7 -25
29 24 c27 23 71 37 161 52 21 3 53 17 73 30 20 14 38 25 40 25 10 0 12 -44 5
-99 -10 -72 -31 -117 -68 -148 -21 -18 -23 -22 -8 -23 20 0 22 -18 4 -41 -21
-28 -89 -69 -113 -69 -28 0 -41 -18 -20 -26 49 -19 -35 -59 -104 -51 -56 7
-110 36 -110 59 0 9 21 33 46 52 46 35 48 36 114 30 45 -5 69 -3 74 5 5 7 -6
11 -33 11 -22 0 -43 5 -47 11 -9 15 43 56 81 64 60 13 68 16 56 28 -7 7 0 22
26 51 54 59 22 57 -42 -3 -60 -57 -91 -67 -81 -26 4 14 2 25 -3 25 -11 0 -21
-25 -21 -52 0 -26 -53 -78 -79 -78 -16 0 -21 6 -21 28 0 21 -2 24 -10 12 -5
-8 -10 -27 -10 -42 0 -21 -12 -37 -55 -69 -62 -47 -152 -149 -161 -183 -3 -12
-4 -51 -2 -86 l3 -64 50 2 c81 5 164 30 262 79 218 108 357 284 402 510 26
126 26 221 1 343 -50 245 -219 447 -450 539 -149 59 -306 75 -455 45z m240
-113 c45 -20 91 -69 112 -118 24 -59 13 -135 -29 -196 l-20 -28 45 -39 c80
-70 112 -175 83 -272 -21 -75 -52 -116 -119 -162 -51 -36 -63 -40 -135 -44
-64 -4 -87 -1 -125 16 -108 48 -166 126 -175 237 -7 89 18 156 80 217 l48 47
-25 47 c-61 115 -12 256 105 303 40 16 112 12 155 -8z m-380 -51 c0 -18 -6
-26 -23 -28 -24 -4 -38 18 -28 44 3 9 15 14 28 12 17 -2 23 -10 23 -28z m633
2 c4 -28 -24 -41 -44 -20 -20 20 -7 50 20 46 13 -2 22 -12 24 -26z m-693 -129
c23 -23 32 -39 25 -41 -16 -6 -46 -36 -52 -53 -3 -9 -17 -1 -42 25 l-38 38 33
34 c18 19 34 34 35 34 1 0 19 -17 39 -37z m784 2 l33 -35 -25 -21 c-14 -11
-29 -28 -32 -39 -6 -18 -10 -15 -44 21 l-39 40 32 33 c17 18 33 34 36 35 3 0
21 -15 39 -34z m-959 -110 c18 -21 5 -45 -25 -45 -20 0 -25 5 -25 23 0 39 26
50 50 22z m1100 0 c16 -19 6 -45 -19 -45 -23 0 -35 28 -20 46 15 18 24 18 39
-1z m-904 -100 c7 -18 -13 -45 -33 -45 -17 0 -27 24 -19 45 7 20 45 19 52 0z
m722 -13 c4 -28 -24 -41 -44 -20 -20 20 -7 50 20 46 13 -2 22 -12 24 -26z
m-889 -48 c43 -43 45 -47 27 -58 -19 -11 -39 -30 -64 -60 -16 -20 -48 -20 -64
0 -17 21 -39 41 -63 58 -19 14 -18 16 25 60 58 59 79 59 139 0z m1138 0 c45
-44 47 -48 28 -58 -11 -6 -33 -26 -50 -43 -18 -18 -38 -33 -46 -33 -13 0 -109
82 -109 94 0 2 17 22 38 44 52 55 79 54 139 -4z m-1037 -164 c11 -11 20 -25
20 -32 0 -17 -31 -48 -48 -48 -20 0 -52 29 -52 47 0 15 35 53 50 53 6 0 19 -9
30 -20z m872 -15 c9 -21 8 -28 -7 -45 -10 -11 -26 -20 -35 -20 -9 0 -25 9 -35
20 -27 30 -7 70 35 70 23 0 33 -6 42 -25z"/>
<path d="M1670 2222 c-100 -50 -108 -197 -14 -258 35 -24 111 -23 150 0 98 58
88 218 -16 260 -52 20 -77 20 -120 -2z"/>
<path d="M1622 1886 c-57 -30 -112 -122 -112 -187 0 -85 47 -159 124 -195 150
-70 316 29 316 189 0 65 -36 143 -82 177 -28 21 -43 24 -131 24 -54 1 -106 -3
-115 -8z m156 -146 c50 -83 55 -128 17 -165 -36 -36 -88 -34 -127 5 -25 26
-30 36 -25 65 5 32 76 164 88 165 3 0 25 -31 47 -70z"/>
<path d="M1109 467 c-78 -41 -113 -126 -90 -215 29 -104 135 -161 242 -129 45
14 46 13 77 -15 41 -36 92 -39 92 -6 0 12 -14 36 -30 53 l-30 31 21 49 c26 59
21 121 -15 176 -51 76 -177 103 -267 56z m161 -62 c52 -27 77 -108 47 -149
-11 -15 -17 -16 -40 -5 -35 16 -61 -3 -52 -38 5 -21 2 -23 -31 -23 -54 0 -104
53 -104 110 0 52 13 76 53 100 38 24 87 25 127 5z"/>
<path d="M2645 471 c-50 -22 -91 -69 -105 -119 -15 -55 -13 -73 16 -130 51
-103 176 -138 277 -79 82 49 111 161 66 255 -39 80 -162 115 -254 73z m166
-87 c78 -75 25 -194 -87 -194 -32 0 -46 6 -71 33 -17 17 -33 42 -36 55 -9 37
11 89 45 117 27 23 39 26 76 22 29 -3 53 -14 73 -33z"/>
<path d="M317 473 c-22 -38 -137 -306 -139 -324 -3 -20 1 -24 26 -24 22 0 33
7 46 30 16 29 19 30 102 33 l86 3 20 -36 c17 -28 28 -35 51 -35 16 0 32 3 35
8 2 4 -32 85 -76 180 -81 171 -81 172 -114 172 -18 0 -35 -3 -37 -7z m67 -164
c9 -22 14 -45 11 -50 -8 -12 -72 -12 -80 1 -7 11 31 90 44 90 5 0 16 -18 25
-41z"/>
<path d="M677 474 c-4 -4 -7 -83 -7 -175 0 -199 -16 -181 160 -177 l115 3 3
32 3 33 -100 0 -100 0 -3 143 -3 142 -30 3 c-17 2 -34 0 -38 -4z"/>
<path d="M1514 466 c-3 -8 -4 -67 -2 -130 2 -97 6 -119 24 -142 33 -45 70 -67
122 -72 65 -6 114 11 152 54 l30 35 0 134 0 135 -35 0 -35 0 0 -110 c0 -60 -5
-120 -11 -133 -23 -51 -104 -63 -144 -22 -24 23 -25 30 -25 145 l0 120 -35 0
c-22 0 -38 -6 -41 -14z"/>
<path d="M1977 474 c-4 -4 -7 -83 -7 -176 l0 -168 35 0 c31 0 35 3 40 32 3 18
5 96 3 173 l-3 140 -30 3 c-17 2 -34 0 -38 -4z"/>
<path d="M2174 467 c-2 -7 -3 -85 -2 -172 l3 -160 38 -3 37 -3 0 49 0 49 66 6
c78 6 112 27 133 80 11 30 11 43 0 79 -20 63 -74 88 -186 88 -59 0 -85 -4 -89
-13z m188 -74 c10 -9 18 -26 18 -39 0 -37 -26 -54 -81 -54 l-49 0 0 48 c0 27
3 52 7 55 13 14 87 7 105 -10z"/>
<path d="M3034 467 c-2 -7 -3 -85 -2 -172 l3 -160 38 -3 37 -3 0 50 0 51 48 0
c55 0 126 30 141 58 17 31 13 114 -5 141 -9 13 -32 29 -50 37 -44 18 -203 19
-210 1z m188 -74 c10 -9 18 -26 18 -39 0 -37 -26 -54 -81 -54 l-49 0 0 55 0
55 47 0 c29 0 53 -6 65 -17z"/>
</g>
</svg>
